<?xml version="1.0" encoding="UTF-8" standalone="no"?>
<svg
   width="100"
   height="100"
   version="1.1"
   id="svg4"
   sodipodi:docname="github-mark.svg"
   inkscape:version="1.2.1 (9c6d41e410, 2022-07-14)"
   xmlns:inkscape="http://www.inkscape.org/namespaces/inkscape"
   xmlns:sodipodi="http://sodipodi.sourceforge.net/DTD/sodipodi-0.dtd"
   xmlns="http://www.w3.org/2000/svg"
   xmlns:svg="http://www.w3.org/2000/svg">
  <defs
     id="defs8" />
  <sodipodi:namedview
     id="namedview6"
     pagecolor="#ffffff"
     bordercolor="#666666"
     borderopacity="1.0"
     inkscape:showpageshadow="2"
     inkscape:pageopacity="0.0"
     inkscape:pagecheckerboard="0"
     inkscape:deskcolor="#d1d1d1"
     showgrid="false"
     inkscape:zoom="4.9166667"
     inkscape:cx="26.745763"
     inkscape:cy="77.491525"
     inkscape:window-width="1920"
     inkscape:window-height="1027"
     inkscape:window-x="-8"
     inkscape:window-y="-8"
     inkscape:window-maximized="1"
     inkscape:current-layer="svg4" />
  <path
     fill-rule="evenodd"
     clip-rule="evenodd"
     d="M 33.453505,9.962132 C 10.927639,19.293623 0.31688125,45.181443 9.7181466,67.875742 17.233079,86.016506 35.26207,96.538838 53.69978,95.268459 c 2.192957,-0.429756 2.399176,-2.028433 1.949095,-3.114911 -0.394122,-0.951398 -1.811759,-4.184868 -3.219341,-7.582716 -10.318265,7.140693 -15.71803,0.779708 -15.71803,0.779708 -3.791349,-4.001761 -6.996003,-4.106378 -6.996003,-4.106378 -4.750304,-0.977568 -0.771277,-2.625907 -0.771277,-2.625907 4.226715,-1.432469 8.017946,1.613913 8.017946,1.613913 6.230587,4.741932 11.366638,0.545171 13.276779,-1.520022 C 49.478074,75.922692 49.79796,73.640952 50.522373,72.147064 41.090387,74.939661 30.11787,75.345888 23.587727,59.582369 21.730065,55.09804 21.827848,50.759084 23.209014,46.843908 22.382506,45.992498 19.22043,42.36603 19.110683,35.804582 c 0,0 2.989115,-2.512165 12.940032,-0.425093 a 42.392434,42.392434 0 0 1 9.621344,-5.578087 c 3.439541,-1.424853 7.143021,-2.401223 10.746575,-2.859459 5.560787,-8.512899 9.450754,-8.850439 9.450754,-8.850439 4.562388,4.716911 4.890282,9.517458 4.907978,10.703923 3.81275,1.763562 6.883513,4.789927 8.741176,9.274255 6.530143,15.76352 -1.543617,23.167232 -10.226572,27.958978 2.018922,0.675921 4.312795,2.590975 5.917266,6.464105 2.279765,5.503266 4.042745,9.947686 4.605432,11.305992 0.450427,1.087312 1.727588,2.07149 3.581545,0.82576 C 93.330347,72.48269 98.637215,52.2943 91.122283,34.153537 81.787723,11.431603 55.911831,0.6586209 33.453505,9.962132 Z"
     fill="#24292f"
     id="path2"
     style="opacity:0.2;stroke-width:0.902543"
     inkscape:label="displaying" />
  <path
     fill-rule="evenodd"
     clip-rule="evenodd"
     d="m 49.606637,4.3572 c -24.382194,0 -44.0928257,19.855941 -44.0928252,44.420448 -7e-7,19.635721 12.6292812,36.256949 30.1494412,42.139723 2.190472,0.442246 2.992832,-0.955793 2.992832,-2.131807 1e-6,-1.029801 -0.0722,-4.559646 -0.0722,-8.237507 -12.265557,2.64806 -14.819753,-5.295219 -14.819753,-5.295219 -1.971153,-5.148104 -4.891783,-6.471232 -4.891783,-6.471232 -4.014509,-2.721166 0.292424,-2.721166 0.292424,-2.721166 4.453147,0.294229 6.789831,4.559646 6.789831,4.559646 3.941404,6.765461 10.292597,4.853875 12.847696,3.676959 0.364627,-2.868281 1.53342,-4.853875 2.774417,-5.956782 -9.782662,-1.029801 -20.075261,-4.853875 -20.075261,-21.916446 10e-7,-4.853876 1.750933,-8.825064 4.525351,-11.913564 -0.437733,-1.102907 -1.971153,-5.663457 0.438636,-11.767354 0,0 3.722989,-1.176916 12.117539,4.559647 A 42.392434,42.392434 0 0 1 49.60664,25.8314 c 3.722989,0 7.518181,0.515352 11.022755,1.471146 8.395453,-5.736563 12.118442,-4.559647 12.118442,-4.559647 2.409789,6.103897 0.875466,10.664447 0.437733,11.767354 2.847522,3.0885 4.526252,7.059688 4.526252,11.913564 0,17.062571 -10.292598,20.812636 -20.148365,21.916446 1.606526,1.397137 2.992831,4.044294 2.992832,8.236605 0,5.956783 -0.0722,10.737552 -0.0722,12.207794 0,1.176916 0.803263,2.574956 2.992832,2.133611 C 80.997075,85.033694 93.626356,68.413369 93.626356,48.777649 93.698559,24.213141 73.915724,4.3572001 49.606637,4.3572 Z"
     fill="#24292f"
     id="path2305"
     style="display:none;opacity:0.2;stroke-width:0.902543"
     inkscape:label="backup"
     sodipodi:insensitive="true" />
</svg>
