<?xml version="1.0" encoding="UTF-8" standalone="no"?>
<svg
   width="100"
   height="100"
   version="1.1"
   id="svg4"
   sodipodi:docname="github-mark.svg"
   inkscape:version="1.2.1 (9c6d41e410, 2022-07-14)"
   xmlns:inkscape="http://www.inkscape.org/namespaces/inkscape"
   xmlns:sodipodi="http://sodipodi.sourceforge.net/DTD/sodipodi-0.dtd"
   xmlns="http://www.w3.org/2000/svg"
   xmlns:svg="http://www.w3.org/2000/svg">
  <defs
     id="defs8" />
  <sodipodi:namedview
     id="namedview6"
     pagecolor="#ffffff"
     bordercolor="#666666"
     borderopacity="1.0"
     inkscape:showpageshadow="2"
     inkscape:pageopacity="0.0"
     inkscape:pagecheckerboard="0"
     inkscape:deskcolor="#d1d1d1"
     showgrid="false"
     inkscape:zoom="4.9166667"
     inkscape:cx="4.9830508"
     inkscape:cy="77.491525"
     inkscape:window-width="1920"
     inkscape:window-height="1027"
     inkscape:window-x="-8"
     inkscape:window-y="-8"
     inkscape:window-maximized="1"
     inkscape:current-layer="svg4" />
  <path
     fill-rule="evenodd"
     clip-rule="evenodd"
     d="m 49.606637,4.3572 c -24.382194,0 -44.0928257,19.855941 -44.0928252,44.420448 -7e-7,19.635721 12.6292812,36.256949 30.1494412,42.139723 2.190472,0.442246 2.992832,-0.955793 2.992832,-2.131807 1e-6,-1.029801 -0.0722,-4.559646 -0.0722,-8.237507 -12.265557,2.64806 -14.819753,-5.295219 -14.819753,-5.295219 -1.971153,-5.148104 -4.891783,-6.471232 -4.891783,-6.471232 -4.014509,-2.721166 0.292424,-2.721166 0.292424,-2.721166 4.453147,0.294229 6.789831,4.559646 6.789831,4.559646 3.941404,6.765461 10.292597,4.853875 12.847696,3.676959 0.364627,-2.868281 1.53342,-4.853875 2.774417,-5.956782 -9.782662,-1.029801 -20.075261,-4.853875 -20.075261,-21.916446 10e-7,-4.853876 1.750933,-8.825064 4.525351,-11.913564 -0.437733,-1.102907 -1.971153,-5.663457 0.438636,-11.767354 0,0 3.722989,-1.176916 12.117539,4.559647 A 42.392434,42.392434 0 0 1 49.60664,25.8314 c 3.722989,0 7.518181,0.515352 11.022755,1.471146 8.395453,-5.736563 12.118442,-4.559647 12.118442,-4.559647 2.409789,6.103897 0.875466,10.664447 0.437733,11.767354 2.847522,3.0885 4.526252,7.059688 4.526252,11.913564 0,17.062571 -10.292598,20.812636 -20.148365,21.916446 1.606526,1.397137 2.992831,4.044294 2.992832,8.236605 0,5.956783 -0.0722,10.737552 -0.0722,12.207794 0,1.176916 0.803263,2.574956 2.992832,2.133611 C 80.997075,85.033694 93.626356,68.413369 93.626356,48.777649 93.698559,24.213141 73.915724,4.3572001 49.606637,4.3572 Z"
     fill="#24292f"
     id="path2305"
     style="display:none;opacity:0.2;stroke-width:0.902543"
     inkscape:label="backup"
     sodipodi:insensitive="true" />
  <path
     fill-rule="evenodd"
     clip-rule="evenodd"
     d="m 50.036461,6.6777651 c -24.3822,0 -44.09283,19.8559409 -44.092829,44.4204479 -1e-6,19.635721 12.629281,36.256949 30.149439,42.139723 2.19047,0.442246 2.99283,-0.955793 2.99283,-2.131807 1e-5,-1.029801 -0.0722,-4.559646 -0.0722,-8.237507 -12.26555,2.64806 -14.81975,-5.295219 -14.81975,-5.295219 -1.97115,-5.148104 -4.891782,-6.471232 -4.891782,-6.471232 -4.014509,-2.721166 0.292424,-2.721166 0.292424,-2.721166 4.453148,0.294229 6.789828,4.559646 6.789828,4.559646 3.94141,6.765461 10.2926,4.853875 12.8477,3.676959 0.36463,-2.868281 1.53342,-4.853875 2.77442,-5.956782 -9.78267,-1.029801 -20.07527,-4.853875 -20.07527,-21.916446 10e-6,-4.853876 1.75094,-8.825064 4.52536,-11.913564 -0.43774,-1.102907 -1.97116,-5.663457 0.43863,-11.767354 0,0 3.72299,-1.176916 12.11754,4.559647 a 42.392434,42.392434 0 0 1 11.02366,-1.471146 c 3.72299,0 7.51818,0.515352 11.02275,1.471146 8.39546,-5.736563 12.11845,-4.559647 12.11845,-4.559647 2.40978,6.103897 0.87546,10.664447 0.43773,11.767354 2.84752,3.0885 4.52625,7.059688 4.52625,11.913564 0,17.062571 -10.2926,20.812636 -20.14836,21.916446 1.60652,1.397137 2.99283,4.044294 2.99283,8.236605 0,5.956783 -0.0722,10.737552 -0.0722,12.207794 0,1.176916 0.80326,2.574956 2.99283,2.133611 17.52015,-5.884579 30.14943,-22.504904 30.14943,-42.140624 0.0722,-24.564508 -19.71063,-44.4204488 -44.01971,-44.4204489 z"
     fill="#24292f"
     id="path2305-3"
     style="display:inline;opacity:0.2;stroke-width:0.902543"
     inkscape:label="backup" />
</svg>
